<svg id="Logo" xmlns="http://www.w3.org/2000/svg" viewBox="0 0 185.78 63.2"><defs><style>.cls-1,.cls-2{fill:#fff;stroke:#fff;stroke-miterlimit:10;}.cls-2{stroke-width:3.04px;}</style></defs><title>Champions_Logo_Final</title><path class="cls-1" d="M71.16,27.33a29.07,29.07,0,0,1,11.66,2.34,30.58,30.58,0,0,1,9.58,6.5l-7.11,7.11a20,20,0,0,0-28.34,0,19.27,19.27,0,0,0-5.89,14.13,20,20,0,0,0,20.11,20,19.61,19.61,0,0,0,14.13-5.81l7.11,7a30.6,30.6,0,0,1-9.58,6.5,30.16,30.16,0,0,1-33-6.5A28.77,28.77,0,0,1,41,57.41a29,29,0,0,1,8.84-21.23A28.87,28.87,0,0,1,71.16,27.33Z" transform="translate(-39.48 -25.81)"/><path class="cls-2" d="M49.84,36.17A29,29,0,0,0,41,57.41a28.77,28.77,0,0,0,8.84,21.23,30.16,30.16,0,0,0,33,6.5,30.55,30.55,0,0,0,9.58-6.5l-7.11-7a20.2,20.2,0,0,1-28.34,0,19.56,19.56,0,0,1-5.89-14.21,20.12,20.12,0,0,1,20.11-20,19.28,19.28,0,0,1,14.13,5.89l7.11-7.11a30.56,30.56,0,0,0-9.58-6.5,29.08,29.08,0,0,0-11.66-2.34A28.87,28.87,0,0,0,49.84,36.17Z" transform="translate(-39.48 -25.81)"/><path class="cls-1" d="M80,57.26a8.17,8.17,0,1,1-8.17-8.17A8.17,8.17,0,0,1,80,57.26" transform="translate(-39.48 -25.81)"/><path class="cls-1" d="M88.44,58.51v0a7.07,7.07,0,0,1,7.25-7.19,7.18,7.18,0,0,1,5.48,2.15l-1.95,2.25a5.13,5.13,0,0,0-3.56-1.57,4.12,4.12,0,0,0-4,4.33v0a4.13,4.13,0,0,0,4,4.37,5,5,0,0,0,3.66-1.63l1.95,2a7.1,7.1,0,0,1-5.7,2.48A7,7,0,0,1,88.44,58.51Z" transform="translate(-39.48 -25.81)"/><path class="cls-1" d="M104.91,51.52H108V57h5.64v-5.5h3.06V65.43h-3.06V59.84H108v5.58h-3.06V51.52Z" transform="translate(-39.48 -25.81)"/><path class="cls-1" d="M126,51.42h2.82l6,14h-3.2l-1.27-3.12h-5.88l-1.27,3.12H120Zm3.22,8.18-1.85-4.51-1.85,4.51h3.7Z" transform="translate(-39.48 -25.81)"/><path class="cls-1" d="M138.15,51.52h3.3l3.66,5.88,3.66-5.88h3.3V65.43h-3V56.35l-3.91,5.94H145l-3.87-5.88v9h-3V51.52Z" transform="translate(-39.48 -25.81)"/><path class="cls-1" d="M156.87,51.52h5.68c3.32,0,5.32,2,5.32,4.81v0c0,3.22-2.5,4.89-5.62,4.89h-2.32v4.17h-3.06V51.52Zm5.48,7a2.15,2.15,0,0,0,2.42-2.11v0c0-1.37-1-2.11-2.48-2.11h-2.36v4.25h2.42Z" transform="translate(-39.48 -25.81)"/><path class="cls-1" d="M171.57,51.52h3.06V65.43h-3.06V51.52Z" transform="translate(-39.48 -25.81)"/><path class="cls-1" d="M178.74,58.51v0a7.39,7.39,0,0,1,14.78,0v0A7.39,7.39,0,0,1,178.74,58.51Zm11.58,0v0a4.23,4.23,0,0,0-4.21-4.37,4.16,4.16,0,0,0-4.17,4.33v0a4.22,4.22,0,0,0,4.21,4.37A4.16,4.16,0,0,0,190.33,58.51Z" transform="translate(-39.48 -25.81)"/><path class="cls-1" d="M197.6,51.52h2.82l6.52,8.56V51.52h3V65.43h-2.6l-6.74-8.84v8.84h-3V51.52Z" transform="translate(-39.48 -25.81)"/><path class="cls-1" d="M213.75,63.4l1.81-2.17a6.38,6.38,0,0,0,4.15,1.69c1.25,0,2-.5,2-1.31v0c0-.77-0.48-1.17-2.8-1.77-2.8-.72-4.61-1.49-4.61-4.25v0c0-2.52,2-4.19,4.87-4.19a8.05,8.05,0,0,1,5.17,1.77l-1.59,2.3A6.53,6.53,0,0,0,219.14,54c-1.17,0-1.79.54-1.79,1.21v0c0,0.91.6,1.21,3,1.83,2.82,0.74,4.41,1.75,4.41,4.17v0c0,2.76-2.11,4.31-5.11,4.31A8.85,8.85,0,0,1,213.75,63.4Z" transform="translate(-39.48 -25.81)"/><path class="cls-1" d="M121,73.76v0a4.06,4.06,0,0,1,8.11,0v0A4.06,4.06,0,0,1,121,73.76Zm6.35,0v0a2.32,2.32,0,0,0-2.31-2.4,2.28,2.28,0,0,0-2.29,2.38v0a2.32,2.32,0,0,0,2.31,2.4A2.28,2.28,0,0,0,127.4,73.76Z" transform="translate(-39.48 -25.81)"/><path class="cls-1" d="M131.44,69.93H133l3.57,4.7v-4.7h1.66v7.63h-1.43l-3.69-4.85v4.85h-1.66V69.93Z" transform="translate(-39.48 -25.81)"/><path class="cls-1" d="M140.52,73.76v0a3.88,3.88,0,0,1,4-3.94,3.93,3.93,0,0,1,3,1.18l-1.07,1.23a2.82,2.82,0,0,0-2-.86,2.26,2.26,0,0,0-2.21,2.38v0a2.27,2.27,0,0,0,2.21,2.4,2.75,2.75,0,0,0,2-.89l1.07,1.08a3.9,3.9,0,0,1-3.13,1.36A3.85,3.85,0,0,1,140.52,73.76Z" transform="translate(-39.48 -25.81)"/><path class="cls-1" d="M149,73.76v0a4.06,4.06,0,0,1,8.11,0v0A4.06,4.06,0,0,1,149,73.76Zm6.35,0v0a2.32,2.32,0,0,0-2.31-2.4,2.28,2.28,0,0,0-2.29,2.38v0a2.32,2.32,0,0,0,2.31,2.4A2.28,2.28,0,0,0,155.39,73.76Z" transform="translate(-39.48 -25.81)"/><path class="cls-1" d="M159.43,69.93h1.68V76h3.8v1.53h-5.48V69.93Z" transform="translate(-39.48 -25.81)"/><path class="cls-1" d="M166.39,73.76v0a4.06,4.06,0,0,1,8.11,0v0A4.06,4.06,0,0,1,166.39,73.76Zm6.35,0v0a2.32,2.32,0,0,0-2.31-2.4,2.28,2.28,0,0,0-2.29,2.38v0a2.32,2.32,0,0,0,2.31,2.4A2.28,2.28,0,0,0,172.75,73.76Z" transform="translate(-39.48 -25.81)"/><path class="cls-1" d="M176.4,73.76v0a3.91,3.91,0,0,1,4-3.94,4.19,4.19,0,0,1,3,1l-1.06,1.27a2.81,2.81,0,0,0-2-.77,2.29,2.29,0,0,0-2.19,2.38v0a2.29,2.29,0,0,0,2.31,2.42A2.67,2.67,0,0,0,182,75.7V74.61h-1.69V73.16h3.31v3.31a5,5,0,0,1-3.26,1.21A3.82,3.82,0,0,1,176.4,73.76Z" transform="translate(-39.48 -25.81)"/><path class="cls-1" d="M188,74.55L185,69.93h2L188.82,73l1.85-3.06h1.91l-2.93,4.59v3H188v-3Z" transform="translate(-39.48 -25.81)"/></svg>